<svg width="13" height="15" viewBox="0 0 13 15" fill="none" xmlns="http://www.w3.org/2000/svg">
<path d="M11.6177 0L5.29362 0C4.59608 0 4.02881 0.67275 4.02881 1.5V4.5H1.49919C0.801643 4.5 0.234375 5.17275 0.234375 6L0.234375 13.5C0.234375 14.3273 0.801643 15 1.49919 15H7.82325C8.52079 15 9.08806 14.3273 9.08806 13.5V10.5H11.6177C12.3152 10.5 12.8825 9.82725 12.8825 9V1.5C12.8825 0.67275 12.3152 0 11.6177 0ZM1.49919 13.5L1.49919 6H7.82325L7.82451 13.5H1.49919ZM11.6177 9H9.08806V6C9.08806 5.17275 8.52079 4.5 7.82325 4.5H5.29362V1.5L11.6177 1.5V9Z" fill="white"/>
</svg>
