<svg width="15" height="17" viewBox="0 0 15 17" fill="none" xmlns="http://www.w3.org/2000/svg">
<path d="M14.957 5.70625C15.0596 5.975 14.9725 6.27812 14.7612 6.475L13.4153 7.70625C13.4495 7.96563 13.4681 8.23125 13.4681 8.5C13.4681 8.76875 13.4495 9.03438 13.4153 9.29375L14.7612 10.525C14.9725 10.7219 15.0596 11.025 14.957 11.2937C14.8202 11.6656 14.6555 12.025 14.469 12.3656L14.3229 12.6187C14.1178 12.9625 13.8877 13.2875 13.636 13.5969C13.4495 13.8188 13.148 13.8969 12.8744 13.8094L11.1431 13.2531C10.7266 13.575 10.2386 13.8438 9.77549 14.05L9.38695 15.8344C9.32478 16.1156 9.1072 16.3156 8.82124 16.3906C8.3923 16.4625 7.95092 16.5 7.47225 16.5C7.04952 16.5 6.60815 16.4625 6.1792 16.3906C5.89324 16.3156 5.67566 16.1156 5.6135 15.8344L5.22496 14.05C4.73385 13.8438 4.27383 13.575 3.85732 13.2531L2.12725 13.8094C1.85248 13.8969 1.54942 13.8188 1.36541 13.5969C1.11333 13.2875 0.883314 12.9625 0.678167 12.6187L0.5327 12.3656C0.344027 12.025 0.17991 11.6656 0.0422129 11.2937C-0.0584954 11.025 0.0263607 10.7219 0.239589 10.525L1.58423 9.29375C1.55004 9.03438 1.53232 8.76875 1.53232 8.5C1.53232 8.23125 1.55004 7.96563 1.58423 7.70625L0.239589 6.475C0.0263607 6.27812 -0.0584954 5.97813 0.0422129 5.70625C0.17991 5.33438 0.344338 4.975 0.5327 4.63438L0.677856 4.38125C0.883314 4.0375 1.11333 3.7125 1.36541 3.40469C1.54942 3.18125 1.85248 3.10375 2.12725 3.19187L3.85732 3.74688C4.27383 3.42375 4.73385 3.155 5.22496 2.95094L5.6135 1.16656C5.67566 0.882812 5.89324 0.6575 6.1792 0.609687C6.60815 0.537531 7.04952 0.5 7.50022 0.5C7.95092 0.5 8.3923 0.537531 8.82124 0.609687C9.1072 0.6575 9.32478 0.882812 9.38695 1.16656L9.77549 2.95094C10.2386 3.155 10.7266 3.42375 11.1431 3.74688L12.8744 3.19187C13.148 3.10375 13.4495 3.18125 13.636 3.40469C13.8877 3.7125 14.1178 4.0375 14.3229 4.38125L14.469 4.63438C14.6555 4.975 14.8202 5.33438 14.957 5.70625ZM7.50022 11C8.87408 11 9.98685 9.88125 9.98685 8.47188C9.98685 7.11875 8.87408 5.97188 7.50022 5.97188C6.12636 5.97188 5.0136 7.11875 5.0136 8.47188C5.0136 9.88125 6.12636 11 7.50022 11Z" fill="white" fill-opacity="0.5"/>
</svg>
