<svg width="11" height="15" viewBox="0 0 11 15" fill="none" xmlns="http://www.w3.org/2000/svg">
<path d="M0.6875 14.5C0.505164 14.5 0.330295 14.4263 0.201364 14.295C0.072433 14.1637 0 13.9857 0 13.8V1.2C0 1.01435 0.072433 0.836301 0.201364 0.705025C0.330295 0.57375 0.505164 0.5 0.6875 0.5H10.3125C10.4948 0.5 10.6697 0.57375 10.7986 0.705025C10.9276 0.836301 11 1.01435 11 1.2V13.8C11 13.9857 10.9276 14.1637 10.7986 14.295C10.6697 14.4263 10.4948 14.5 10.3125 14.5H0.6875ZM7.5625 10.3L11 7.5L7.5625 4.7V6.8H3.4375V8.2H7.5625V10.3Z" fill="white" fill-opacity="0.5"/>
</svg>
