<svg width="14" height="15" viewBox="0 0 14 15" fill="none" xmlns="http://www.w3.org/2000/svg">
<path d="M7 0.5C3.1402 0.5 0 3.6402 0 7.5C0 11.3598 3.1402 14.5 7 14.5C10.8598 14.5 14 11.3598 14 7.5C14 3.6402 10.8598 0.5 7 0.5ZM7.7 11.7H6.3V10.3H7.7V11.7ZM8.3832 8.2805C8.246 8.3911 8.1137 8.4968 8.0087 8.6018C7.7231 8.8867 7.7007 9.1457 7.7 9.1569V9.25H6.3V9.1331C6.3 9.0505 6.3203 8.3092 7.0182 7.6113C7.1547 7.4748 7.3241 7.3362 7.5019 7.192C8.0157 6.7755 8.3531 6.4717 8.3531 6.0531C8.34497 5.69947 8.19875 5.36308 7.94574 5.11588C7.69273 4.86869 7.35303 4.73034 6.99931 4.73043C6.64559 4.73052 6.30595 4.86905 6.05307 5.11637C5.80019 5.3637 5.65415 5.70017 5.6462 6.0538H4.2462C4.2462 4.5355 5.4817 3.3 7 3.3C8.5183 3.3 9.7538 4.5355 9.7538 6.0538C9.7538 7.1717 8.9285 7.8388 8.3832 8.2805Z" fill="white" fill-opacity="0.5"/>
</svg>
