<svg width="18" height="18" viewBox="0 0 18 18" fill="none" xmlns="http://www.w3.org/2000/svg">
<path d="M7.60286 14.9792C9.22993 14.9788 10.8101 14.4341 12.0918 13.4318L16.1214 17.4615L17.4176 16.1653L13.3879 12.1357C14.3908 10.8539 14.9358 9.27332 14.9362 7.64583C14.9362 3.60242 11.6463 0.3125 7.60286 0.3125C3.55945 0.3125 0.269531 3.60242 0.269531 7.64583C0.269531 11.6892 3.55945 14.9792 7.60286 14.9792ZM7.60286 2.14583C10.6361 2.14583 13.1029 4.61258 13.1029 7.64583C13.1029 10.6791 10.6361 13.1458 7.60286 13.1458C4.56961 13.1458 2.10286 10.6791 2.10286 7.64583C2.10286 4.61258 4.56961 2.14583 7.60286 2.14583Z" fill="#B9B9B9"/>
</svg>
