<svg width="17" height="16" viewBox="0 0 17 16" fill="none" xmlns="http://www.w3.org/2000/svg">
<path d="M14.0755 14.2513H2.92839C2.50604 14.2513 2.101 14.0835 1.80235 13.7849C1.50371 13.4862 1.33594 13.0812 1.33594 12.6589V5.49284C1.33594 5.0705 1.50371 4.66545 1.80235 4.36681C2.101 4.06817 2.50604 3.90039 2.92839 3.90039H14.0755C14.4979 3.90039 14.9029 4.06817 15.2016 4.36681C15.5002 4.66545 15.668 5.0705 15.668 5.49284V12.6589C15.668 13.0812 15.5002 13.4862 15.2016 13.7849C14.9029 14.0835 14.4979 14.2513 14.0755 14.2513Z" stroke="white" stroke-width="1.5"/>
<path d="M12.0856 9.47396C11.98 9.47396 11.8788 9.43201 11.8041 9.35735C11.7294 9.28269 11.6875 9.18143 11.6875 9.07585C11.6875 8.97026 11.7294 8.869 11.8041 8.79434C11.8788 8.71968 11.98 8.67773 12.0856 8.67773C12.1912 8.67773 12.2925 8.71968 12.3671 8.79434C12.4418 8.869 12.4837 8.97026 12.4837 9.07585C12.4837 9.18143 12.4418 9.28269 12.3671 9.35735C12.2925 9.43201 12.1912 9.47396 12.0856 9.47396Z" stroke="white" stroke-width="1.5" stroke-linecap="round" stroke-linejoin="round"/>
<path d="M13.2793 3.90037V2.78805C13.2792 2.54401 13.2231 2.30325 13.1152 2.08436C13.0073 1.86547 12.8505 1.67431 12.657 1.52565C12.4634 1.37698 12.2383 1.27478 11.999 1.22694C11.7597 1.1791 11.5126 1.1869 11.2768 1.24975L2.51833 3.58507C2.17918 3.67545 1.87939 3.87534 1.66557 4.15367C1.45174 4.43201 1.33586 4.77319 1.33594 5.12417V5.49282" stroke="white" stroke-width="1.5"/>
</svg>
