<svg width="730" height="175" viewBox="0 0 730 175" fill="none" xmlns="http://www.w3.org/2000/svg">
<path fill-rule="evenodd" clip-rule="evenodd" d="M291.62 28L297.971 17L304.321 28L370.717 143H358.015L297.971 39L237.926 143H225.224L291.62 28Z" fill="black"/>
<mask id="path-2-outside-1" maskUnits="userSpaceOnUse" x="-0.353082" y="-6.02412e-06" width="203" height="175" fill="black">
<rect fill="white" x="-0.353082" y="-6.02412e-06" width="203" height="175"/>
<path fill-rule="evenodd" clip-rule="evenodd" d="M106.52 134L101.323 143L96.1273 134L28 16L38.3923 16L101.323 125L164.255 16L174.647 16L106.52 134Z"/>
</mask>
<path fill-rule="evenodd" clip-rule="evenodd" d="M106.52 134L101.323 143L96.1273 134L28 16L38.3923 16L101.323 125L164.255 16L174.647 16L106.52 134Z" fill="#1B3FBC"/>
<path d="M101.323 143L87.4671 151L101.323 175L115.18 151L101.323 143ZM106.52 134L92.6632 126L106.52 134ZM96.1273 134L109.984 126L109.984 126L96.1273 134ZM28 16L28 3.97616e-05L0.287162 4.21843e-05L14.1436 24L28 16ZM38.3923 16L52.2487 8.00004L47.6299 3.80455e-05L38.3923 3.88531e-05L38.3923 16ZM101.323 125L87.4671 133L101.323 157L115.18 133L101.323 125ZM164.255 16L164.255 2.78498e-05L155.017 2.86574e-05L150.398 8.00003L164.255 16ZM174.647 16L188.503 24L202.36 2.45186e-05L174.647 2.69413e-05L174.647 16ZM115.18 151L120.376 142L92.6632 126L87.4671 135L115.18 151ZM82.2709 142L87.4671 151L115.18 135L109.984 126L82.2709 142ZM14.1436 24L82.2709 142L109.984 126L41.8564 8.00004L14.1436 24ZM38.3923 3.88531e-05L28 3.97616e-05L28 32L38.3923 32L38.3923 3.88531e-05ZM24.5359 24L87.4671 133L115.18 117L52.2487 8.00004L24.5359 24ZM115.18 133L178.111 24L150.398 8.00003L87.4671 117L115.18 133ZM174.647 2.69413e-05L164.255 2.78498e-05L164.255 32L174.647 32L174.647 2.69413e-05ZM120.376 142L188.503 24L160.791 8.00003L92.6632 126L120.376 142Z" fill="#1B3FBC" mask="url(#path-2-outside-1)"/>
<path fill-rule="evenodd" clip-rule="evenodd" d="M649.703 28L656.054 17L662.404 28L728.8 143H716.098L656.054 39L596.009 143H583.307L649.703 28Z" fill="black"/>
<path fill-rule="evenodd" clip-rule="evenodd" d="M421.294 17V26.4317V133.432V143.432H431.294H523.294H532.73L523.294 132.726V133.432H431.294V28.3457L421.294 17Z" fill="black"/>
</svg>
