<svg width="522" height="127" viewBox="0 0 522 127" fill="none" xmlns="http://www.w3.org/2000/svg">
<path fill-rule="evenodd" clip-rule="evenodd" d="M442.55 10L448.324 0L454.097 10L521.647 127H510.1L448.324 20L386.547 127H375L442.55 10Z" fill="black"/>
<path fill-rule="evenodd" clip-rule="evenodd" d="M262 11.4414V117H354V116.703L363 127H354H262H252V117V10V0L262 11.4414Z" fill="black"/>
<path fill-rule="evenodd" clip-rule="evenodd" d="M160.55 10L166.324 0L172.097 10L239.647 127H228.1L166.324 20L104.547 127H93L160.55 10Z" fill="black"/>
<path fill-rule="evenodd" clip-rule="evenodd" d="M79.097 117L73.3235 127L67.55 117L-1.55485e-05 -2.20008e-06L11.547 -3.20955e-06L73.3235 107L135.1 -2.16403e-05L146.647 -2.26498e-05L79.097 117Z" fill="black"/>
</svg>
